<svg xmlns="http://www.w3.org/2000/svg" viewBox="0 0 209.06 279.82"><defs><style>.cls-1{fill:#63b5d6;}.cls-2{fill:#4d97c1;}.cls-10,.cls-3{fill:#dfe7ea;}.cls-4{font-size:23.6px;fill:#fff;font-family:Roboto-Medium, Roboto;font-weight:500;}.cls-5{letter-spacing:0.01em;}.cls-6{letter-spacing:0em;}.cls-11,.cls-7,.cls-9{fill:none;}.cls-7{stroke:#63b5d6;stroke-width:3px;}.cls-10,.cls-11,.cls-7,.cls-9{stroke-miterlimit:10;}.cls-8{fill:#a7b1b5;}.cls-10,.cls-11,.cls-9{stroke:#a7b1b5;stroke-width:2px;}.cls-11{stroke-linecap:round;}</style></defs><g id="Capa_2" data-name="Capa 2"><g id="Capa_1-2" data-name="Capa 1"><path class="cls-1" d="M209.06,219H0V21.9A21.91,21.91,0,0,1,21.9,0H187.15a21.91,21.91,0,0,1,21.91,21.9Z"/><path class="cls-2" d="M192.65,279.82H16.4A16.4,16.4,0,0,1,0,263.42V219H209.06v44.41A16.41,16.41,0,0,1,192.65,279.82Z"/><path class="cls-3" d="M143.54,195.54H44.18A8.59,8.59,0,0,1,35.59,187V56.15a8.59,8.59,0,0,1,8.59-8.59h84l0,15.32c.12,4.37,3.23,8.59,8.59,8.59l15.32.22V187A8.58,8.58,0,0,1,143.54,195.54Z"/><text class="cls-4" transform="translate(36.83 254.87)">PROGRA<tspan class="cls-5" x="92.05" y="0">M</tspan><tspan class="cls-6" x="112.78" y="0">AS</tspan></text><path class="cls-3" d="M150.76,183.79H57.59A8.59,8.59,0,0,1,49,175.2V44.4a8.59,8.59,0,0,1,8.59-8.59h84l0,15.32c.12,4.37,3.23,8.59,8.59,8.59l15.32.23V175.2a8.58,8.58,0,0,1-8.59,8.59h-6.19"/><path class="cls-7" d="M157.09,184.8H56.53a8.59,8.59,0,0,1-8.59-8.59v-132"/><polygon class="cls-8" points="178.72 48.65 154.79 48.65 154.79 24.18 178.72 48.65"/><path class="cls-3" d="M164.39,172.16H71.22a8.59,8.59,0,0,1-8.59-8.59V32.77a8.59,8.59,0,0,1,8.59-8.59h84l0,15.32c.12,4.37,3.23,8.59,8.59,8.59l15.32.23V163.57a8.58,8.58,0,0,1-8.59,8.59h-6.19"/><path class="cls-7" d="M170.72,173.17H70.16a8.59,8.59,0,0,1-8.59-8.59v-132"/><rect class="cls-8" x="79.77" y="72.97" width="79.51" height="4.36"/><rect class="cls-8" x="79.77" y="147.05" width="32.84" height="4.36"/><rect class="cls-8" x="101.81" y="54.6" width="32.84" height="4.36"/><rect class="cls-8" x="79.77" y="93.12" width="78.47" height="4.36"/><rect class="cls-9" x="82.65" y="109.87" width="30.09" height="23.04"/><rect class="cls-8" x="82.77" y="109.75" width="29.97" height="5.99"/><circle class="cls-10" cx="108.88" cy="128.84" r="7.52"/><line class="cls-11" x1="108.88" y1="128.84" x2="108.88" y2="126.26"/><line class="cls-11" x1="113.72" y1="128.86" x2="108.94" y2="128.86"/><line class="cls-11" x1="91.2" y1="111.27" x2="91.2" y2="106.61"/><line class="cls-11" x1="103.43" y1="111.27" x2="103.43" y2="106.61"/><rect class="cls-9" x="128.58" y="109.87" width="30.09" height="23.04"/><rect class="cls-8" x="128.69" y="109.75" width="29.97" height="5.99"/><line class="cls-11" x1="137.13" y1="111.27" x2="137.13" y2="106.61"/><line class="cls-11" x1="149.35" y1="111.27" x2="149.35" y2="106.61"/><circle class="cls-10" cx="155.55" cy="128.84" r="7.52"/><line class="cls-11" x1="155.55" y1="128.84" x2="155.55" y2="126.26"/><line class="cls-11" x1="160.38" y1="128.86" x2="155.6" y2="128.86"/></g></g></svg>