<svg xmlns="http://www.w3.org/2000/svg" xmlns:xlink="http://www.w3.org/1999/xlink" viewBox="0 0 209.06 279.82"><defs><style>.cls-1,.cls-11,.cls-12,.cls-5{fill:none;}.cls-2{fill:#7c9be0;}.cls-3{fill:#6586c9;}.cls-4{fill:#dfe7ea;}.cls-5{stroke:#7c9be0;stroke-width:3px;}.cls-11,.cls-12,.cls-5{stroke-miterlimit:10;}.cls-10,.cls-6{fill:#a7b1b5;}.cls-7{font-size:23.6px;fill:#fff;font-family:Roboto-Medium, Roboto;font-weight:500;}.cls-8{letter-spacing:0.01em;}.cls-9{letter-spacing:-0.01em;}.cls-10{font-size:31.53px;font-family:Roboto-Bold, Roboto;font-weight:700;}.cls-11,.cls-12{stroke:#6586c9;}.cls-11{stroke-width:7px;}.cls-12{stroke-linecap:round;stroke-width:12px;}.cls-13{clip-path:url(#clip-path);}.cls-14{opacity:0.5;}</style><clipPath id="clip-path"><circle class="cls-1" cx="112.81" cy="75.01" r="41.37"/></clipPath></defs><g id="Capa_2" data-name="Capa 2"><g id="Capa_1-2" data-name="Capa 1"><path class="cls-2" d="M209.06,219H0V21.9A21.91,21.91,0,0,1,21.9,0H187.15a21.91,21.91,0,0,1,21.91,21.9Z"/><path class="cls-3" d="M192.65,279.82H16.4A16.4,16.4,0,0,1,0,263.42V219H209.06v44.41A16.41,16.41,0,0,1,192.65,279.82Z"/><path class="cls-4" d="M136.49,193.32H37.12a8.6,8.6,0,0,1-8.59-8.59V53.93a8.6,8.6,0,0,1,8.59-8.6h84l0,15.33c.12,4.37,3.23,8.59,8.59,8.59l15.33.22V184.73A8.6,8.6,0,0,1,136.49,193.32Z"/><path class="cls-4" d="M143.7,181.57H50.53A8.6,8.6,0,0,1,41.94,173V42.18a8.59,8.59,0,0,1,8.59-8.59h84l0,15.32c.12,4.37,3.23,8.59,8.59,8.59l15.33.22V173a8.6,8.6,0,0,1-8.59,8.59h-6.2"/><path class="cls-5" d="M150,182.58H49.48A8.59,8.59,0,0,1,40.89,174V42"/><polygon class="cls-6" points="171.81 46.58 147.88 46.58 147.88 22.1 171.81 46.58"/><path class="cls-4" d="M157.48,170.09H64.31a8.6,8.6,0,0,1-8.59-8.59V30.69a8.6,8.6,0,0,1,8.59-8.59h84l0,15.33c.12,4.37,3.23,8.59,8.59,8.59l15.32.22V161.5a8.59,8.59,0,0,1-8.59,8.59h-6.19"/><path class="cls-5" d="M163.81,171.1H63.26a8.6,8.6,0,0,1-8.6-8.59v-132"/><text class="cls-7" transform="translate(23.41 257.83)">POSTU<tspan class="cls-8" x="75.63" y="0">L</tspan><tspan x="88.88" y="0">A</tspan><tspan class="cls-9" x="103.86" y="0">N</tspan><tspan x="120.16" y="0">TES</tspan></text><rect class="cls-6" x="141.26" y="102.13" width="7.42" height="4.36"/><rect class="cls-6" x="80.82" y="123.53" width="67.85" height="4.36"/><rect class="cls-6" x="80.82" y="143.37" width="67.85" height="4.36"/><text class="cls-10" transform="translate(60.7 56.72)">CV</text><line class="cls-11" x1="133.7" y1="111.35" x2="141.48" y2="122.24"/><line class="cls-12" x1="142.37" y1="123.57" x2="159.93" y2="148.53"/><g class="cls-13"><path class="cls-6" d="M110.36,126.12a51,51,0,0,1,.49-6.32,26.38,26.38,0,0,1,1.87-5.65c1.28-2.84,1.19-4.35-1-6.6-1-1-.87-1.69.37-2.27a7.53,7.53,0,0,0,.73-.41c1.59-1,1.42-1.25,0-2.39-3-2.5-5.93-5.23-8.87-7.87a.87.87,0,0,1-.3-.56c.15-2.57-1.42-4.57-2.14-6.84a30.52,30.52,0,0,1-.72-4.08c-.26-1.42-.62-2.62-2.56-2.2-.44.09-1.32-.57-1.55-1.08a39.21,39.21,0,0,1-2.51-6.44,17.51,17.51,0,0,1-.12-5.12A1.78,1.78,0,0,1,95.18,67c1.41-.35,1.23-1.26,1.16-2.31-.25-3.38-.63-6.76-.57-10.14a10.41,10.41,0,0,1,3.82-7.87c1.73-1.48,3.47-3,5.33-4.26a14.42,14.42,0,0,1,17.6.5,3.55,3.55,0,0,0,1.46.74c4.36.9,5.86,4.51,7.13,8,1.37,3.8,0,7.85.38,11.77a2.59,2.59,0,0,0,.73,1.72c2.29,1.73,3.21,3.67,2.27,6.53a52,52,0,0,1-3.15,6.78c-.58,1.18-1.48.92-2.62-.1-.72,2.77-1.36,5.26-2,7.74a5.22,5.22,0,0,1-.32,1.28,2.49,2.49,0,0,0,.52,3.43c1,.9.67,2,0,2.86q-2,2.58-4.14,5a36.62,36.62,0,0,1-3.36,3.23,8.15,8.15,0,0,1-2,1.11,15.07,15.07,0,0,1-1.64.56l-.1.49,3.11,1.78a35.9,35.9,0,0,0-1.59,6,11.29,11.29,0,0,0,.78,5,20.1,20.1,0,0,1,1,9.18Z"/><path class="cls-6" d="M129.3,126.12c.25-3,.55-6,.75-9a99,99,0,0,0-1.11-24,3.75,3.75,0,0,1,.13-.86,10.73,10.73,0,0,1,2,1.51A12.75,12.75,0,0,0,137.9,98c6.73,2,13.45,4,20.17,6a1,1,0,0,0,.32.09c3.11-.07,3.92,2,4.36,4.57,1,5.81,2.07,11.61,3.1,17.41Z"/><path class="cls-6" d="M65.5,126.12c.8-5.49,1.58-11,2.42-16.48a4.28,4.28,0,0,1,3.27-3.6c6.64-2.07,13.34-4,19.89-6.36,3.16-1.14,6.39-2.45,9-4.84a9.45,9.45,0,0,1,1.46-.86c-.31,1.72-.57,3.1-.79,4.48A106.18,106.18,0,0,0,100,123c.08,1.06.07,2.11.1,3.17Z"/></g><g class="cls-14"><circle class="cls-4" cx="112.81" cy="75.01" r="41.37"/></g><circle class="cls-11" cx="112.81" cy="75.01" r="41.37"/></g></g></svg>