<svg xmlns="http://www.w3.org/2000/svg" viewBox="0 0 209.06 279.82"><defs><style>.cls-1{fill:#64ba9a;}.cls-2{fill:#4da090;}.cls-3{font-size:23.6px;fill:#fff;font-family:Roboto-Medium, Roboto;font-weight:500;}.cls-4{letter-spacing:-0.02em;}.cls-5{letter-spacing:-0.05em;}.cls-6{letter-spacing:0em;}.cls-7{letter-spacing:-0.09em;}.cls-8{letter-spacing:-0.01em;}.cls-9{letter-spacing:-0.01em;}.cls-10{fill:#dfe7ea;}.cls-11{fill:#a7b1b5;}</style></defs><g id="Capa_2" data-name="Capa 2"><g id="Capa_1-2" data-name="Capa 1"><path class="cls-1" d="M209.06,219H0V21.9A21.91,21.91,0,0,1,21.9,0H187.15a21.91,21.91,0,0,1,21.91,21.9Z"/><path class="cls-2" d="M192.65,279.82H16.4A16.4,16.4,0,0,1,0,263.42V219H209.06v44.41A16.41,16.41,0,0,1,192.65,279.82Z"/><text class="cls-3" transform="translate(10.91 247.18)">CA<tspan class="cls-4" x="29.96" y="0">R</tspan><tspan class="cls-5" x="44.4" y="0">T</tspan><tspan class="cls-6" x="57" y="0">AS DE </tspan><tspan class="cls-7" x="127.12" y="0">P</tspan><tspan class="cls-8" x="140.09" y="0">A</tspan><tspan x="154.95" y="0">GO</tspan><tspan x="24.18" y="22.88">A DOCE</tspan><tspan class="cls-9" x="105.06" y="22.88">N</tspan><tspan x="121.35" y="22.88">TES</tspan></text><path class="cls-10" d="M141.36,197.42H42a8.58,8.58,0,0,1-8.59-8.59V58A8.58,8.58,0,0,1,42,49.44h84l0,15.32a8.5,8.5,0,0,0,8.59,8.59l15.32.22V188.83A8.58,8.58,0,0,1,141.36,197.42Z"/><path class="cls-10" d="M148.58,185.67H55.41a8.58,8.58,0,0,1-8.59-8.59V46.28a8.58,8.58,0,0,1,8.59-8.59h84l0,15.32A8.5,8.5,0,0,0,148,61.6l15.32.23V177.08a8.58,8.58,0,0,1-8.59,8.59h-6.19"/><path class="cls-1" d="M154.91,188.18H54.35a10.11,10.11,0,0,1-10.09-10.09v-132h3v132a7.1,7.1,0,0,0,7.09,7.09H154.91Z"/><polygon class="cls-11" points="176.53 50.53 152.61 50.53 152.61 26.06 176.53 50.53"/><path class="cls-10" d="M162.21,174H69a8.58,8.58,0,0,1-8.59-8.59V34.65A8.58,8.58,0,0,1,69,26.06h84l0,15.32A8.5,8.5,0,0,0,161.67,50L177,50.2V165.45A8.58,8.58,0,0,1,168.4,174h-6.19"/><path class="cls-1" d="M168.54,176.55H68a10.11,10.11,0,0,1-10.09-10.09v-132h3v132A7.1,7.1,0,0,0,68,173.55H168.54Z"/><rect class="cls-11" x="101.96" y="62.06" width="37.44" height="7.79" rx="3.9"/><rect class="cls-11" x="83" y="110.87" width="78.07" height="4.25"/><rect class="cls-11" x="83" y="95.42" width="78.07" height="4.25"/><rect class="cls-11" x="83.4" y="127.09" width="37.19" height="4.25"/><rect class="cls-11" x="99.99" y="147.68" width="39.89" height="4.25"/><path class="cls-1" d="M91.55,50.19a35.7,35.7,0,1,1-35.7-35.7A35.71,35.71,0,0,1,91.55,50.19Z"/><circle class="cls-10" cx="55.85" cy="50.19" r="31.26"/><path class="cls-11" d="M58.7,65.34c-.05-.9.22-1.4,1.26-1.53,1.45-.18,3-2.18,3-3.68.07-3.41-.62-4.41-3.86-5.73s-6.59-1.94-9.7-3.45a9,9,0,0,1-5.13-5.55,8.24,8.24,0,0,1,4.61-9.81,7.93,7.93,0,0,1,2-.72c.51-.08,1.25-.82,1.57.05a1.32,1.32,0,0,1-1,1.88,4.06,4.06,0,0,0-3,4.38c.16,1.49,1.23,2.24,2.36,2.9A30.09,30.09,0,0,0,58,46.62,32,32,0,0,1,62.19,48a9.22,9.22,0,0,1,2,16,12.59,12.59,0,0,1-4.36,2.18C58.71,66.56,58.7,66.53,58.7,65.34Z"/><path class="cls-11" d="M53.65,63.29c0-2.74,0-5.47,0-8.2,0-.91.24-1.05,1.07-.82,2.62.71,2.63.69,2.63,3.43,0,4.58,0,9.17,0,13.75,0,.88-.12,1.24-1.13,1.21-2.57-.07-2.57,0-2.57-2.56Z"/><path class="cls-11" d="M50.27,58.39A3.61,3.61,0,0,1,49,60.65c-1.07,1-1,1.45.08,2.4a5,5,0,0,0,2.3,1.25c1.2.2.94,1,1,1.79,0,.42-.24.49-.57.4-3.25-.84-6.18-2.2-7.91-5.27a5.42,5.42,0,0,1-.55-4.14A3.57,3.57,0,0,1,47,54.5,3.83,3.83,0,0,1,50.27,58.39Z"/><path class="cls-11" d="M57.33,36.75c0,2.44,0,4.87,0,7.3,0,.9-.25.94-1,.71-2.71-.83-2.71-.81-2.71-3.66,0-3.81,0-7.63,0-11.45,0-.88.13-1.25,1.14-1.23,2.56.06,2.56,0,2.56,2.55Z"/><path class="cls-11" d="M63,44.34a3.14,3.14,0,0,1-3-4.69c.06-.12.11-.23.17-.34,1.11-2.11,1.12-2.13-1.21-2.83-.92-.28-.36-.95-.47-1.43s.23-.57.62-.49c2.42.52,4.71,1.34,6.25,3.43a4.42,4.42,0,0,1,.86,3.79A3.06,3.06,0,0,1,63,44.34Z"/><polygon class="cls-11" points="46.36 81.31 77.71 112.66 46.36 144 46.36 81.31"/><path class="cls-11" d="M15.51,63.11c-.62-7.27-10.87,62.27,38.85,61.69L54.17,101S19,103.39,15.51,63.11Z"/></g></g></svg>