<svg xmlns="http://www.w3.org/2000/svg" viewBox="0 0 209.06 279.82"><defs><style>.cls-1{fill:#0bbccc;}.cls-2{fill:#0fa9b5;}.cls-3{fill:#a7b1b5;}.cls-4,.cls-9{fill:#dfe7ea;}.cls-5{font-size:23.6px;fill:#fff;font-family:Roboto-Bold, Roboto;font-weight:700;}.cls-6{letter-spacing:0.01em;}.cls-7{letter-spacing:0em;}.cls-10,.cls-8{fill:none;}.cls-10,.cls-8,.cls-9{stroke:#a7b1b5;stroke-width:2px;}.cls-10,.cls-11,.cls-8,.cls-9{stroke-miterlimit:10;}.cls-10{stroke-linecap:round;}.cls-11{fill:#e6eeef;stroke:#0bbccc;stroke-width:5.49px;}</style></defs><g id="Capa_2" data-name="Capa 2"><g id="Capa_1-2" data-name="Capa 1"><path class="cls-1" d="M209.06,219H0V21.9A21.91,21.91,0,0,1,21.9,0H187.15a21.91,21.91,0,0,1,21.91,21.9Z"/><path class="cls-2" d="M192.65,279.82H16.4A16.4,16.4,0,0,1,0,263.42V219H209.06v44.41A16.41,16.41,0,0,1,192.65,279.82Z"/><polygon class="cls-3" points="162.34 73.27 138.42 73.27 138.42 48.8 162.34 73.27"/><path class="cls-4" d="M154.21,196.78H54.85a8.58,8.58,0,0,1-8.59-8.59V57.39a8.58,8.58,0,0,1,8.59-8.59h84l0,15.32c.11,4.37,3.22,8.59,8.59,8.59l15.32.23V188.19A8.59,8.59,0,0,1,154.21,196.78Z"/><text class="cls-5" transform="translate(29.18 244.98)">REGISTRO DE <tspan x="4.14" y="22.88">PROGRA</tspan><tspan class="cls-6" x="96.22" y="22.88">M</tspan><tspan class="cls-7" x="116.97" y="22.88">AS</tspan></text><rect class="cls-3" x="67.49" y="95.86" width="79.51" height="4.36"/><rect class="cls-3" x="67.49" y="169.93" width="32.84" height="4.36"/><rect class="cls-3" x="89.53" y="77.49" width="32.84" height="4.36"/><rect class="cls-3" x="67.49" y="116.01" width="78.47" height="4.36"/><rect class="cls-8" x="70.37" y="132.75" width="30.09" height="23.04"/><rect class="cls-3" x="70.49" y="132.63" width="29.97" height="5.99"/><circle class="cls-9" cx="96.6" cy="151.73" r="7.52"/><line class="cls-10" x1="96.6" y1="151.73" x2="96.6" y2="149.14"/><line class="cls-10" x1="101.44" y1="151.75" x2="96.66" y2="151.75"/><line class="cls-10" x1="78.93" y1="134.16" x2="78.93" y2="129.49"/><line class="cls-10" x1="91.15" y1="134.16" x2="91.15" y2="129.49"/><rect class="cls-8" x="116.3" y="132.75" width="30.09" height="23.04"/><rect class="cls-3" x="116.42" y="132.63" width="29.97" height="5.99"/><line class="cls-10" x1="124.85" y1="134.16" x2="124.85" y2="129.49"/><line class="cls-10" x1="137.08" y1="134.16" x2="137.08" y2="129.49"/><circle class="cls-9" cx="143.27" cy="151.73" r="7.52"/><line class="cls-10" x1="143.27" y1="151.73" x2="143.27" y2="149.14"/><line class="cls-10" x1="148.11" y1="151.75" x2="143.33" y2="151.75"/><circle class="cls-11" cx="66.66" cy="68.4" r="49.32"/><rect class="cls-1" x="59.55" y="33.03" width="17.54" height="70.75" rx="8.77" transform="translate(-0.08 136.72) rotate(-90)"/><rect class="cls-1" x="59.55" y="33.03" width="17.54" height="70.75" rx="8.77" transform="translate(136.64 136.8) rotate(180)"/></g></g></svg>