<svg xmlns="http://www.w3.org/2000/svg" viewBox="0 0 209.06 279.82"><defs><style>.cls-1{fill:#2898ee;}.cls-2{fill:#1a7ed8;}.cls-3{font-size:23.6px;fill:#fff;font-family:Roboto-Medium, Roboto;font-weight:500;}.cls-4{letter-spacing:-0.02em;}.cls-5{letter-spacing:-0.01em;}.cls-6{letter-spacing:-0.01em;}.cls-7{letter-spacing:0em;}.cls-8{fill:#dfe7ea;}.cls-9{fill:#a7b1b5;}.cls-10{fill:none;stroke:#a7b1b5;stroke-miterlimit:10;stroke-width:1.55px;}</style></defs><g id="Capa_2" data-name="Capa 2"><g id="Capa_1-2" data-name="Capa 1"><path class="cls-1" d="M209.06,219H0V21.9A21.91,21.91,0,0,1,21.9,0H187.15a21.91,21.91,0,0,1,21.91,21.9Z"/><path class="cls-2" d="M192.65,279.82H16.4A16.4,16.4,0,0,1,0,263.42V219H209.06v44.41A16.41,16.41,0,0,1,192.65,279.82Z"/><text class="cls-3" transform="translate(4.13 247.77)">CE<tspan class="cls-4" x="28.05" y="0">R</tspan><tspan x="42.49" y="0">TIFIC</tspan><tspan class="cls-5" x="97.96" y="0">A</tspan><tspan x="112.82" y="0">CIONES</tspan><tspan x="38.6" y="22.88">DOCE</tspan><tspan class="cls-6" x="98.62" y="22.88">N</tspan><tspan class="cls-7" x="114.92" y="22.88">TES</tspan></text><rect class="cls-8" x="31.04" y="59.2" width="149.33" height="104.89"/><rect class="cls-9" x="49.56" y="101.75" width="116" height="4.36"/><rect class="cls-9" x="49.56" y="122.64" width="116" height="4.36"/><rect class="cls-9" x="68.07" y="145.1" width="45.63" height="4.36"/><rect class="cls-9" x="71.64" y="74.31" width="67.85" height="9.72" rx="4.86"/><path class="cls-9" d="M31,75.73h0A16.48,16.48,0,0,0,47.56,59.26s0,0,0-.06H31Z"/><path class="cls-9" d="M163.77,59.21v0a16.48,16.48,0,0,0,16.48,16.48h.06V59.21Z"/><path class="cls-9" d="M31,147.65h0a16.49,16.49,0,0,1,16.49,16.49.43.43,0,0,0,0,.05H31Z"/><path class="cls-9" d="M163.77,164.17v0a16.48,16.48,0,0,1,16.48-16.48h.06v16.51Z"/><polygon class="cls-9" points="134.04 202.73 128.95 189.79 117.19 196.05 135.18 150.66 152.03 157.34 134.04 202.73"/><polygon class="cls-9" points="156.25 203.76 161.34 190.83 173.11 197.08 155.11 151.69 138.26 158.37 156.25 203.76"/><path class="cls-9" d="M150.28,178.67a4.81,4.81,0,0,1-2.6-.76l-.59-.38a3.27,3.27,0,0,0-3.54,0l-.58.38a4.84,4.84,0,0,1-6.9-1.85l-.32-.62a3.27,3.27,0,0,0-2.91-1.77l-1.08,0a4.82,4.82,0,0,1-4.82-5.05l0-.7a3.29,3.29,0,0,0-1.76-3.06l-.63-.32a4.84,4.84,0,0,1-1.84-6.9l.38-.59a3.31,3.31,0,0,0,0-3.53l-.38-.59a4.82,4.82,0,0,1,1.84-6.89l.63-.33a3.27,3.27,0,0,0,1.76-3.06l0-.7a4.84,4.84,0,0,1,4.82-5.05H132l.85,0a3.27,3.27,0,0,0,2.91-1.77l.32-.62a4.84,4.84,0,0,1,6.9-1.85l.59.38a3.21,3.21,0,0,0,1.76.52,3.27,3.27,0,0,0,1.77-.52l.59-.38a4.83,4.83,0,0,1,6.89,1.85l.32.62A3.27,3.27,0,0,0,157.8,137l1.08,0A4.84,4.84,0,0,1,163.7,142l0,.7a3.26,3.26,0,0,0,1.77,3.06l.62.33a4.84,4.84,0,0,1,1.85,6.89l-.38.59a3.27,3.27,0,0,0,0,3.53l.38.59a4.85,4.85,0,0,1-1.85,6.9l-.62.32a3.28,3.28,0,0,0-1.77,3.06l0,.7a4.82,4.82,0,0,1-4.82,5.05h-.23l-.85,0a3.27,3.27,0,0,0-2.91,1.77l-.32.62A4.81,4.81,0,0,1,150.28,178.67Z"/><path class="cls-8" d="M150.28,132.76a4,4,0,0,1,3.6,2.19l.32.62a4.05,4.05,0,0,0,3.6,2.19H158l.7,0h.19a4,4,0,0,1,4,4.24l0,.7a4,4,0,0,0,2.19,3.78l.62.33a4,4,0,0,1,1.55,5.78l-.38.59a4.06,4.06,0,0,0,0,4.37l.38.59a4.05,4.05,0,0,1-1.55,5.79l-.62.32a4,4,0,0,0-2.19,3.78l0,.71a4,4,0,0,1-4,4.23h-.19l-.7,0h-.19a4.05,4.05,0,0,0-3.6,2.19l-.32.63a4,4,0,0,1-5.78,1.55l-.59-.38a4,4,0,0,0-2.19-.64,4,4,0,0,0-2.18.64l-.59.38a4.06,4.06,0,0,1-5.79-1.55l-.32-.63a4.05,4.05,0,0,0-3.6-2.19h-.19l-.7,0h-.19a4,4,0,0,1-4-4.23l0-.71a4,4,0,0,0-2.19-3.78l-.62-.32a4.05,4.05,0,0,1-1.55-5.79l.38-.59a4.06,4.06,0,0,0,0-4.37l-.38-.59a4,4,0,0,1,1.55-5.78l.62-.33a4,4,0,0,0,2.19-3.78l0-.7a4,4,0,0,1,4-4.24H132l.7,0h.19a4.05,4.05,0,0,0,3.6-2.19l.32-.62a4,4,0,0,1,3.6-2.19,3.93,3.93,0,0,1,2.19.64l.59.37a4,4,0,0,0,2.18.65,4.05,4.05,0,0,0,2.19-.65l.59-.37a4,4,0,0,1,2.18-.64m0-1.56a5.58,5.58,0,0,0-3,.89l-.59.38a2.56,2.56,0,0,1-1.35.39,2.58,2.58,0,0,1-1.35-.39l-.59-.38a5.59,5.59,0,0,0-8,2.14l-.32.62a2.47,2.47,0,0,1-2.22,1.35h-.12l-.7,0h-.26a5.64,5.64,0,0,0-4,1.74,5.5,5.5,0,0,0-1.54,4.13l0,.7a2.51,2.51,0,0,1-1.35,2.33l-.62.32a5.62,5.62,0,0,0-2.15,8l.38.59a2.47,2.47,0,0,1,0,2.69l-.38.59a5.62,5.62,0,0,0,2.15,8l.62.32a2.52,2.52,0,0,1,1.35,2.33l0,.7a5.5,5.5,0,0,0,1.54,4.13,5.6,5.6,0,0,0,4,1.74H132l.7,0h.12a2.47,2.47,0,0,1,2.22,1.35l.32.62a5.59,5.59,0,0,0,8,2.14l.59-.37a2.51,2.51,0,0,1,1.35-.4,2.48,2.48,0,0,1,1.35.4l.59.37a5.59,5.59,0,0,0,8-2.14l.33-.62a2.46,2.46,0,0,1,2.21-1.35h.12l.7,0h.26a5.62,5.62,0,0,0,5.6-5.87l0-.7a2.49,2.49,0,0,1,1.34-2.33l.62-.32a5.6,5.6,0,0,0,2.15-8l-.38-.59a2.51,2.51,0,0,1,0-2.69l.38-.59a5.6,5.6,0,0,0-2.14-8l-.63-.32a2.48,2.48,0,0,1-1.34-2.33l0-.7a5.55,5.55,0,0,0-1.55-4.13,5.64,5.64,0,0,0-4.05-1.74h-.26l-.7,0h-.12a2.47,2.47,0,0,1-2.21-1.34l-.33-.63a5.57,5.57,0,0,0-5-3Z"/><circle class="cls-8" cx="145.21" cy="154.98" r="15.89"/><circle class="cls-10" cx="145.32" cy="154.64" r="12.21"/></g></g></svg>