<svg xmlns="http://www.w3.org/2000/svg" viewBox="0 0 31.18 31.18"><defs><style>.cls-1{fill:#777e7f;}.cls-2{fill:#fff;}</style></defs><g id="Capa_2" data-name="Capa 2"><g id="Capa_1-2" data-name="Capa 1"><path class="cls-1" d="M29.87,9.34A15.58,15.58,0,0,0,12.54.3a15.31,15.31,0,0,0-8.68,5A15.16,15.16,0,0,0,0,14.63,15.16,15.16,0,0,0,3.74,25.72a15.27,15.27,0,0,0,11.81,5.45h.62a15.33,15.33,0,0,0,11.24-5.42A15.56,15.56,0,0,0,29.87,9.34Z"/><path class="cls-2" d="M24.77,24.72H21V24.4c0-1.94,0-3.87,0-5.81a10.37,10.37,0,0,0-.1-1.47,1.92,1.92,0,0,0-2.93-1.62,2,2,0,0,0-1,1.19,7.94,7.94,0,0,0-.39,2.69c0,1.6,0,3.19,0,4.79v.54H12.94V12.18h3.6v1.63c.28-.3.51-.58.76-.83a4.33,4.33,0,0,1,3.37-1.15,3.71,3.71,0,0,1,2.59,1,4.61,4.61,0,0,1,1.25,2.45,19.12,19.12,0,0,1,.32,4.34c0,1.66,0,3.31,0,5C24.79,24.61,24.77,24.66,24.77,24.72Z"/><path class="cls-2" d="M10.49,24.71H6.74V12.18h3.75Z"/><path class="cls-2" d="M6.4,8.14a2.24,2.24,0,1,1,2.23,2.34A2.31,2.31,0,0,1,6.4,8.14Z"/></g></g></svg>