<svg xmlns="http://www.w3.org/2000/svg" viewBox="0 0 209.06 279.82"><defs><style>.cls-1{fill:#6d8aaa;}.cls-2{fill:#517796;}.cls-3{font-size:23.6px;fill:#fff;}.cls-3,.cls-7{font-family:Roboto-Bold, Roboto;font-weight:700;}.cls-4{letter-spacing:-0.01em;}.cls-5{fill:#dfe7ea;}.cls-6,.cls-7{fill:#a7b1b5;}.cls-7{font-size:15.64px;}</style></defs><g id="Capa_2" data-name="Capa 2"><g id="Capa_1-2" data-name="Capa 1"><path class="cls-1" d="M209.06,219H0V21.9A21.91,21.91,0,0,1,21.9,0H187.15a21.91,21.91,0,0,1,21.91,21.9Z"/><path class="cls-2" d="M192.65,279.82H16.4A16.4,16.4,0,0,1,0,263.42V219H209.06v44.41A16.41,16.41,0,0,1,192.65,279.82Z"/><text class="cls-3" transform="translate(41.88 256.09)">DOCE<tspan class="cls-4" x="59.99" y="0">N</tspan><tspan x="76.31" y="0">TES</tspan></text><rect class="cls-5" x="26.72" y="24.19" width="158.22" height="49.33"/><path class="cls-6" d="M58.43,66.39a22.24,22.24,0,0,1,.19-2.47,10.8,10.8,0,0,1,.73-2.21A1.92,1.92,0,0,0,59,59.13c-.37-.39-.34-.66.15-.88l.28-.16c.62-.38.56-.49,0-.93-1.19-1-2.31-2-3.46-3.08a.35.35,0,0,1-.12-.22c.06-1-.55-1.78-.84-2.67a13.9,13.9,0,0,1-.28-1.59c-.1-.55-.24-1-1-.86-.17,0-.51-.22-.6-.42a14.6,14.6,0,0,1-1-2.52,6.62,6.62,0,0,1,0-2,.69.69,0,0,1,.41-.51c.55-.14.49-.5.46-.9-.1-1.32-.25-2.64-.23-4a4.06,4.06,0,0,1,1.5-3.08,25.64,25.64,0,0,1,2.08-1.66,5.62,5.62,0,0,1,6.87.19,1.29,1.29,0,0,0,.57.29c1.7.36,2.29,1.76,2.78,3.14s0,3.07.15,4.6a1,1,0,0,0,.29.67,2.07,2.07,0,0,1,.88,2.55,20.44,20.44,0,0,1-1.22,2.65c-.23.46-.58.36-1,0l-.78,3a1.93,1.93,0,0,1-.12.5,1,1,0,0,0,.2,1.34.77.77,0,0,1,0,1.12q-.78,1-1.62,2A14.2,14.2,0,0,1,62,56.94a3.62,3.62,0,0,1-.77.43c-.21.09-.43.15-.64.22l0,.19,1.21.7a14.5,14.5,0,0,0-.62,2.36,4.26,4.26,0,0,0,.31,2,7.85,7.85,0,0,1,.38,3.59Z"/><path class="cls-6" d="M65.83,66.39c.1-1.17.21-2.34.29-3.51a39,39,0,0,0-.43-9.35,1.21,1.21,0,0,1,0-.33,4,4,0,0,1,.78.59,5,5,0,0,0,2.67,1.62l7.87,2.36a.65.65,0,0,0,.13,0c1.21,0,1.53.79,1.7,1.78.4,2.27.81,4.53,1.21,6.8Z"/><path class="cls-6" d="M40.91,66.39c.32-2.15.62-4.29,1-6.44a1.66,1.66,0,0,1,1.28-1.4c2.59-.81,5.21-1.57,7.76-2.49a9.75,9.75,0,0,0,3.51-1.89,3.57,3.57,0,0,1,.56-.33c-.11.67-.22,1.21-.3,1.75a41.32,41.32,0,0,0-.3,9.56c0,.41,0,.82,0,1.24Z"/><rect class="cls-6" x="83.33" y="41.42" width="58.76" height="4.36"/><rect class="cls-6" x="83.52" y="55.26" width="58.76" height="4.36"/><rect class="cls-6" x="150.06" y="47.3" width="25.11" height="7.56" rx="3.78"/><rect class="cls-5" x="26.72" y="87.6" width="158.22" height="49.33"/><rect class="cls-6" x="83.33" y="104.83" width="58.76" height="4.36"/><rect class="cls-6" x="83.52" y="118.67" width="58.76" height="4.36"/><rect class="cls-6" x="150.06" y="110.71" width="25.11" height="7.56" rx="3.78"/><path class="cls-6" d="M77.29,115.16a3.54,3.54,0,0,0-2.94-2.11c-1.3-.11-2.59-.21-3.89-.23-.75,0-.95-.34-1-1a58.9,58.9,0,0,0-1.88-11.43,14.24,14.24,0,0,0-1.92-4,9.34,9.34,0,0,0-2.44-1.77H59.76c-.39.19-.8.37-1.19.58a7.18,7.18,0,0,0-3.65,6c-.47,4.56-.73,9.14-1,13.72a2,2,0,0,1-1.4,2,4.83,4.83,0,0,0-1.46.71,4.26,4.26,0,0,0-1.22,1.56c-.62,1.67-1,3.45-1.68,5.06a13.41,13.41,0,0,1-1.48,2.42v1.6H61.41c-1.69-2.76-3.33-5.55-3.64-9l-2.34,1.52-.14-.1c.91-2.14,1.83-4.27,2.74-6.41l.21,0a21,21,0,0,0,.64,2.09c.83,2,1.69,3.92,2.6,5.84.35.74.86.69,1.26,0A11.32,11.32,0,0,0,63.91,120c.7-2.33,1.29-4.69,2-7.2,1.49,2.54,2.73,5.21,4,7.93l-4-1.61A39.17,39.17,0,0,0,63,128.3H75.79c0-.21.07-.42.11-.63s.13-.56.18-.8l1.3,1.43h3v-8c-.82-1.32-1.65-2.63-2.46-4C77.71,116,77.51,115.56,77.29,115.16Z"/><text class="cls-7" transform="translate(29.8 41.74)">CV</text><rect class="cls-5" x="26.72" y="152.19" width="158.22" height="49.33"/><path class="cls-6" d="M58.43,194.39a22.24,22.24,0,0,1,.19-2.47,10.8,10.8,0,0,1,.73-2.21,1.92,1.92,0,0,0-.37-2.58c-.37-.39-.34-.66.15-.88l.28-.16c.62-.38.56-.49,0-.93-1.19-1-2.31-2-3.46-3.08a.35.35,0,0,1-.12-.22c.06-1-.55-1.78-.84-2.67a13.9,13.9,0,0,1-.28-1.59c-.1-.55-.24-1-1-.86-.17,0-.51-.22-.6-.42a14.6,14.6,0,0,1-1-2.52,6.62,6.62,0,0,1,0-2,.69.69,0,0,1,.41-.51c.55-.14.49-.5.46-.9-.1-1.32-.25-2.64-.23-4a4.06,4.06,0,0,1,1.5-3.08,25.64,25.64,0,0,1,2.08-1.66,5.62,5.62,0,0,1,6.87.19,1.29,1.29,0,0,0,.57.29c1.7.36,2.29,1.76,2.78,3.14s0,3.07.15,4.6a1,1,0,0,0,.29.67,2.07,2.07,0,0,1,.88,2.55,20.44,20.44,0,0,1-1.22,2.65c-.23.46-.58.36-1,0l-.78,3a1.93,1.93,0,0,1-.12.5,1,1,0,0,0,.2,1.34.77.77,0,0,1,0,1.12q-.78,1-1.62,2A14.2,14.2,0,0,1,62,184.94a3.62,3.62,0,0,1-.77.43c-.21.09-.43.15-.64.22l0,.19,1.21.7a14.5,14.5,0,0,0-.62,2.36,4.26,4.26,0,0,0,.31,2,7.85,7.85,0,0,1,.38,3.59Z"/><path class="cls-6" d="M65.83,194.39c.1-1.17.21-2.34.29-3.51a39,39,0,0,0-.43-9.35,1.21,1.21,0,0,1,0-.33,4,4,0,0,1,.78.59,5,5,0,0,0,2.67,1.62l7.87,2.36a.65.65,0,0,0,.13,0c1.21,0,1.53.79,1.7,1.78.4,2.27.81,4.53,1.21,6.8Z"/><path class="cls-6" d="M40.91,194.39c.32-2.15.62-4.29,1-6.44a1.66,1.66,0,0,1,1.28-1.4c2.59-.81,5.21-1.57,7.76-2.49a9.75,9.75,0,0,0,3.51-1.89,3.57,3.57,0,0,1,.56-.33c-.11.67-.22,1.21-.3,1.75a41.32,41.32,0,0,0-.3,9.56c0,.41,0,.82,0,1.24Z"/><rect class="cls-6" x="83.33" y="169.42" width="58.76" height="4.36"/><rect class="cls-6" x="83.52" y="183.26" width="58.76" height="4.36"/><rect class="cls-6" x="150.06" y="175.3" width="25.11" height="7.56" rx="3.78"/><text class="cls-7" transform="translate(29.8 169.74)">CV</text><text class="cls-7" transform="translate(29.8 103.35)">CV</text></g></g></svg>