<svg xmlns="http://www.w3.org/2000/svg" viewBox="0 0 209.06 279.82"><defs><style>.cls-1{fill:#90bfe4;}.cls-2{fill:#67add3;}.cls-3{font-size:23.6px;fill:#fff;font-family:Roboto-Medium, Roboto;font-weight:500;}.cls-4{letter-spacing:0.01em;}.cls-5{letter-spacing:0em;}.cls-6{fill:#dfe7ea;}.cls-7{fill:#a7b1b5;}.cls-8{fill:none;stroke:#a7b1b5;stroke-miterlimit:10;stroke-width:1.57px;}</style></defs><g id="Capa_2" data-name="Capa 2"><g id="Capa_1-2" data-name="Capa 1"><path class="cls-1" d="M21.9,0H187.15a21.9,21.9,0,0,1,21.9,21.9V219a0,0,0,0,1,0,0H0a0,0,0,0,1,0,0V21.9A21.9,21.9,0,0,1,21.9,0Z"/><path class="cls-2" d="M0,219H209.06a0,0,0,0,1,0,0v44.41a16.4,16.4,0,0,1-16.4,16.4H16.4A16.4,16.4,0,0,1,0,263.42V219A0,0,0,0,1,0,219Z"/><text class="cls-3" transform="translate(44.87 244.53)">INFORMES<tspan x="-25.47" y="22.88">DE </tspan><tspan class="cls-4" x="9.28" y="22.88">M</tspan><tspan class="cls-5" x="30.01" y="22.88">ARKETING</tspan></text><path class="cls-6" d="M142.25,200.22H42.89a8.59,8.59,0,0,1-8.59-8.59V60.82a8.59,8.59,0,0,1,8.59-8.59h84l0,15.32c.11,4.37,3.22,8.59,8.59,8.59l15.32.23V191.63A8.59,8.59,0,0,1,142.25,200.22Z"/><path class="cls-6" d="M149.47,188.47H56.3a8.59,8.59,0,0,1-8.59-8.59V49.07a8.59,8.59,0,0,1,8.59-8.59h84l0,15.32c.11,4.37,3.22,8.59,8.59,8.59l15.32.23V179.88a8.59,8.59,0,0,1-8.59,8.59h-6.19"/><path class="cls-1" d="M155.8,191H55.24a10.1,10.1,0,0,1-10.09-10.09v-132h3v132A7.1,7.1,0,0,0,55.24,188H155.8Z"/><polygon class="cls-7" points="177.42 53.33 153.5 53.33 153.5 28.85 177.42 53.33"/><path class="cls-6" d="M163.1,176.84H69.93a8.59,8.59,0,0,1-8.59-8.59V37.44a8.59,8.59,0,0,1,8.59-8.59h84l0,15.32c.11,4.37,3.22,8.59,8.59,8.59l15.32.23V168.25a8.59,8.59,0,0,1-8.59,8.59H163.1"/><path class="cls-1" d="M169.43,179.34H68.87a10.1,10.1,0,0,1-10.09-10.09v-132h3v132a7.1,7.1,0,0,0,7.09,7.09H169.43Z"/><path class="cls-7" d="M97.46,73.12a14.16,14.16,0,0,0-3.28-.39,13.9,13.9,0,1,0,8.33,25L94.18,86.63Z"/><path class="cls-7" d="M111,86.63a13.9,13.9,0,0,0-10.62-13.51L97.08,86.63l8.33,11.13A13.88,13.88,0,0,0,111,86.63Z"/><rect class="cls-7" x="122.37" y="71.14" width="34.44" height="4.57"/><rect class="cls-7" x="100.62" y="52.24" width="34.44" height="4.57" rx="2.28"/><rect class="cls-7" x="122.37" y="87.11" width="34.44" height="4.57"/><rect class="cls-7" x="79.38" y="139.1" width="13.05" height="24.1"/><rect class="cls-7" x="100.81" y="129.83" width="13.05" height="33.37"/><rect class="cls-7" x="144.93" y="124" width="13.05" height="39.49"/><rect class="cls-7" x="123.14" y="117.25" width="13.05" height="46.25"/><circle class="cls-7" cx="85.82" cy="125.79" r="3.11"/><circle class="cls-7" cx="107.41" cy="117.56" r="3.11"/><circle class="cls-7" cx="129.48" cy="103.79" r="3.11"/><circle class="cls-7" cx="151.74" cy="111.35" r="3.11"/><polyline class="cls-8" points="86.13 125.75 107.38 117.59 129.47 103.79 151.76 111.34"/></g></g></svg>