<svg xmlns="http://www.w3.org/2000/svg" viewBox="0 0 209.06 279.82"><defs><style>.cls-1{fill:#2898ee;}.cls-2{fill:#1a7ed8;}.cls-3{font-size:23.6px;fill:#fff;font-family:Roboto-Bold, Roboto;font-weight:700;}.cls-4{letter-spacing:0.01em;}.cls-5{fill:#dfe7ea;}</style></defs><g id="Capa_2" data-name="Capa 2"><g id="Capa_1-2" data-name="Capa 1"><path class="cls-1" d="M209.06,219H0V21.9A21.91,21.91,0,0,1,21.9,0H187.15a21.91,21.91,0,0,1,21.91,21.9Z"/><path class="cls-2" d="M192.65,279.82H16.4A16.4,16.4,0,0,1,0,263.42V219H209.06v44.41A16.41,16.41,0,0,1,192.65,279.82Z"/><text class="cls-3" transform="translate(68.08 244.98)">PERFIL <tspan x="-18.39" y="22.88">PERSO</tspan><tspan class="cls-4" x="55.64" y="22.88">N</tspan><tspan x="72.5" y="22.88">AL</tspan></text><path class="cls-5" d="M98.42,183.2a81.84,81.84,0,0,1,.74-9.68,39.79,39.79,0,0,1,2.88-8.63c1.95-4.35,1.81-6.67-1.46-10.11-1.46-1.55-1.33-2.59.57-3.47a12.07,12.07,0,0,0,1.11-.62c2.43-1.49,2.17-1.92,0-3.67-4.68-3.82-9.08-8-13.58-12a1.34,1.34,0,0,1-.46-.86c.23-3.92-2.17-7-3.28-10.46a49.46,49.46,0,0,1-1.1-6.25c-.39-2.16-.94-4-3.91-3.37-.67.15-2-.86-2.38-1.65a59.39,59.39,0,0,1-3.83-9.85c-.62-2.48-.34-5.22-.2-7.83a2.77,2.77,0,0,1,1.63-2c2.16-.53,1.89-1.93,1.77-3.53-.37-5.17-1-10.35-.87-15.52A15.91,15.91,0,0,1,82,61.62c2.64-2.26,5.31-4.52,8.15-6.51,7.34-5.16,18.41-6.34,26.92.76A5.41,5.41,0,0,0,119.26,57c6.67,1.39,9,6.9,10.91,12.3,2.1,5.82.08,12,.58,18A4,4,0,0,0,131.86,90c3.52,2.64,4.92,5.62,3.48,10a78.49,78.49,0,0,1-4.81,10.38c-.9,1.8-2.27,1.4-4-.16-1.09,4.25-2.08,8-3.05,11.85A8.57,8.57,0,0,1,123,124a3.8,3.8,0,0,0,.79,5.25c1.5,1.37,1,3,0,4.38q-3,3.94-6.34,7.64a57,57,0,0,1-5.13,4.94,13,13,0,0,1-3,1.69,23,23,0,0,1-2.5.86l-.16.76,4.76,2.72c-.92,3.32-2.17,6.24-2.43,9.25a17.38,17.38,0,0,0,1.19,7.7c1.85,4.61,1.87,9.28,1.53,14Z"/><path class="cls-5" d="M127.4,183.2c.39-4.58.85-9.15,1.16-13.73a152.92,152.92,0,0,0-1.71-36.64,6.54,6.54,0,0,1,.19-1.33,15.83,15.83,0,0,1,3.06,2.33c2.71,3.46,6.41,5.14,10.46,6.34,10.3,3.05,20.58,6.17,30.87,9.26a1.46,1.46,0,0,0,.48.14c4.77-.12,6,3.13,6.68,7,1.56,8.88,3.16,17.75,4.74,26.63Z"/><path class="cls-5" d="M29.77,183.2C31,174.79,32.2,166.38,33.48,158a6.55,6.55,0,0,1,5-5.51c10.17-3.17,20.42-6.12,30.43-9.73,4.85-1.75,9.79-3.75,13.73-7.4A14.06,14.06,0,0,1,84.87,134c-.47,2.64-.87,4.74-1.21,6.85a162.1,162.1,0,0,0-1.15,37.48c.12,1.61.1,3.23.14,4.85Z"/></g></g></svg>