<svg xmlns="http://www.w3.org/2000/svg" viewBox="0 0 31.18 31.18"><defs><style>.cls-1{fill:#777e7f;}.cls-2{fill:#fefefe;}</style></defs><g id="Capa_2" data-name="Capa 2"><g id="Capa_1-2" data-name="Capa 1"><circle class="cls-1" cx="15.59" cy="15.59" r="15.59"/><path class="cls-2" d="M22.51,6.4c0-.14,0-.2-.18-.22-.33,0-.67-.1-1-.13a13.25,13.25,0,0,0-3.72,0,5.11,5.11,0,0,0-4.09,3.2,6.78,6.78,0,0,0-.5,2.59q0,1.69,0,3.39c0,.28-.08.33-.34.32H9.26c-.2,0-.26.06-.26.26,0,1.36,0,2.71,0,4.07,0,.21.07.25.26.25h3.49c.21,0,.27.05.27.27Q13,25.66,13,31a15.67,15.67,0,0,0,2.58.22A15.34,15.34,0,0,0,18,31q0-5.33,0-10.65c0-.22.06-.27.27-.27h3.18c.17,0,.24,0,.27-.23.2-1.36.4-2.72.62-4.08,0-.23,0-.27-.23-.27H18.23c-.22,0-.29,0-.29-.28,0-.9,0-1.81,0-2.71a2.25,2.25,0,0,1,2.42-2.43h1.91c.16,0,.24,0,.23-.21Z"/></g></g></svg>