<svg xmlns="http://www.w3.org/2000/svg" viewBox="0 0 31.18 31.18"><defs><style>.cls-1{fill:#777e7f;}.cls-2{fill:#fff;}</style></defs><g id="Capa_2" data-name="Capa 2"><g id="Capa_1-2" data-name="Capa 1"><path class="cls-1" d="M15.66,0A15.59,15.59,0,1,0,31.18,15.7,15.61,15.61,0,0,0,15.66,0Z"/><path class="cls-2" d="M15.6,5.54h4.17a5.84,5.84,0,0,1,5.59,3.87,5.59,5.59,0,0,1,.33,1.9q0,4.32,0,8.65A5.79,5.79,0,0,1,20,25.76q-4.34,0-8.69,0A5.81,5.81,0,0,1,5.48,19.9V11.47a5.83,5.83,0,0,1,5.91-5.93Zm0,18.4H20a3.63,3.63,0,0,0,1.72-.4A3.85,3.85,0,0,0,23.83,20c0-2,0-4,0-6,0-.94,0-1.87,0-2.81a3.82,3.82,0,0,0-2.66-3.47,3.86,3.86,0,0,0-1.11-.19c-3,0-6,0-9,0a3.82,3.82,0,0,0-3.71,3.81q0,4.38,0,8.78a3.84,3.84,0,0,0,3.85,3.87Z"/><path class="cls-2" d="M15.59,10.45a5.25,5.25,0,1,1-5.25,5.34A5.26,5.26,0,0,1,15.59,10.45Zm-3.4,5.26a3.4,3.4,0,1,0,3.38-3.4A3.41,3.41,0,0,0,12.19,15.71Z"/><path class="cls-2" d="M19.79,10.27a1.22,1.22,0,1,1,2.44,0A1.24,1.24,0,0,1,21,11.49,1.22,1.22,0,0,1,19.79,10.27Z"/></g></g></svg>